<?xml version="1.0" encoding="UTF-8"?>
<!DOCTYPE svg PUBLIC "-//W3C//DTD SVG 1.1//EN" "http://www.w3.org/Graphics/SVG/1.1/DTD/svg11.dtd">
<!-- Creator: CorelDRAW 2018 (64-Bit) -->
<svg xmlns="http://www.w3.org/2000/svg" xml:space="preserve" width="122.5mm" height="122.5mm" version="1.1" style="shape-rendering:geometricPrecision; text-rendering:geometricPrecision; image-rendering:optimizeQuality; fill-rule:evenodd; clip-rule:evenodd"
viewBox="0 0 4123.25 4123.25"
 xmlns:xlink="http://www.w3.org/1999/xlink">
 <defs>
  <style type="text/css">
   <![CDATA[
    .fil3 {fill:none}
    .fil5 {fill:#0075BE}
    .fil2 {fill:#191B38}
    .fil4 {fill:#C2C2C2}
    .fil0 {fill:white}
    .fil1 {fill:#0075BE;fill-rule:nonzero}
   ]]>
  </style>
 </defs>
 <g id="Слой_x0020_1">
  <metadata id="CorelCorpID_0Corel-Layer"/>
  <g id="_2344290151424">
   <g>
    <path class="fil0" d="M2061.62 42.07c1115.36,0 2019.55,904.18 2019.55,2019.55 0,1115.36 -904.19,2019.55 -2019.55,2019.55 -1115.37,0 -2019.55,-904.19 -2019.55,-2019.55 0,-1115.37 904.18,-2019.55 2019.55,-2019.55z"/>
    <path id="1" class="fil1" d="M4123.25 2061.62l-84.15 0 0 0 -2.57 -101.81 -7.64 -100.44 -12.58 -98.96 -17.39 -97.37 -22.08 -95.66 -26.64 -93.82 -31.08 -91.87 -35.4 -89.79 -39.6 -87.58 -43.67 -85.26 -47.61 -82.81 -51.44 -80.23 -55.14 -77.53 -58.71 -74.71 -62.16 -71.76 -65.49 -68.68 -68.68 -65.49 -71.76 -62.16 -74.71 -58.71 -77.53 -55.14 -80.23 -51.44 -82.81 -47.61 -85.26 -43.67 -87.58 -39.59 -89.79 -35.4 -91.87 -31.08 -93.82 -26.64 -95.66 -22.08 -97.37 -17.39 -98.97 -12.58 -100.44 -7.64 -101.81 -2.57 0 -84.15 106.05 2.68 104.68 7.96 103.18 13.11 101.53 18.13 99.76 23.03 97.85 27.78 95.81 32.42 93.64 36.92 91.33 41.29 88.9 45.53 86.34 49.64 83.65 53.63 80.83 57.47 77.87 61.2 74.8 64.79 71.59 68.25 68.25 71.59 64.79 74.8 61.2 77.87 57.47 80.83 53.63 83.65 49.64 86.34 45.53 88.9 41.29 91.33 36.92 93.64 32.42 95.8 27.78 97.85 23.03 99.76 18.13 101.53 13.11 103.17 7.96 104.69 2.68 106.05 0 0zm-2061.62 2061.62l0 -84.15 0 0 101.81 -2.57 100.44 -7.64 98.97 -12.58 97.37 -17.39 95.66 -22.08 93.82 -26.64 91.87 -31.08 89.79 -35.4 87.58 -39.6 85.26 -43.67 82.81 -47.61 80.23 -51.44 77.53 -55.14 74.71 -58.71 71.76 -62.16 68.68 -65.49 65.49 -68.68 62.16 -71.76 58.71 -74.71 55.14 -77.53 51.44 -80.23 47.61 -82.81 43.67 -85.26 39.6 -87.58 35.4 -89.79 31.08 -91.87 26.64 -93.82 22.08 -95.66 17.39 -97.37 12.58 -98.97 7.64 -100.44 2.57 -101.81 84.15 0 -2.68 106.05 -7.96 104.68 -13.11 103.18 -18.13 101.53 -23.03 99.76 -27.78 97.85 -32.42 95.81 -36.92 93.64 -41.29 91.33 -45.53 88.9 -49.64 86.34 -53.63 83.65 -57.47 80.83 -61.2 77.87 -64.79 74.8 -68.25 71.59 -71.59 68.25 -74.8 64.79 -77.87 61.2 -80.83 57.47 -83.65 53.63 -86.34 49.64 -88.9 45.53 -91.33 41.29 -93.64 36.92 -95.81 32.42 -97.85 27.78 -99.76 23.03 -101.53 18.13 -103.18 13.11 -104.68 7.96 -106.05 2.68 0 0zm-2061.62 -2061.62l84.15 0 0 0 2.57 101.81 7.64 100.44 12.58 98.97 17.39 97.37 22.08 95.66 26.64 93.82 31.08 91.87 35.4 89.79 39.59 87.58 43.67 85.26 47.61 82.81 51.44 80.23 55.14 77.53 58.71 74.71 62.16 71.76 65.49 68.68 68.68 65.49 71.76 62.16 74.71 58.71 77.53 55.14 80.23 51.44 82.81 47.61 85.26 43.67 87.58 39.6 89.79 35.4 91.87 31.08 93.82 26.64 95.66 22.08 97.37 17.39 98.96 12.58 100.44 7.64 101.81 2.57 0 84.15 -106.05 -2.68 -104.69 -7.96 -103.17 -13.11 -101.53 -18.13 -99.76 -23.03 -97.85 -27.78 -95.8 -32.42 -93.64 -36.92 -91.33 -41.29 -88.9 -45.53 -86.34 -49.64 -83.65 -53.63 -80.83 -57.47 -77.87 -61.2 -74.8 -64.79 -71.59 -68.25 -68.25 -71.59 -64.79 -74.8 -61.2 -77.87 -57.47 -80.83 -53.63 -83.65 -49.64 -86.34 -45.53 -88.9 -41.29 -91.33 -36.92 -93.64 -32.42 -95.81 -27.78 -97.85 -23.03 -99.76 -18.13 -101.53 -13.11 -103.18 -7.96 -104.68 -2.68 -106.05 0 0zm2061.62 -2061.62l0 84.15 0 0 -101.81 2.57 -100.44 7.64 -98.96 12.58 -97.37 17.39 -95.66 22.08 -93.82 26.64 -91.87 31.08 -89.79 35.4 -87.58 39.59 -85.26 43.67 -82.81 47.61 -80.23 51.44 -77.53 55.14 -74.71 58.71 -71.76 62.16 -68.68 65.49 -65.49 68.68 -62.16 71.76 -58.71 74.71 -55.14 77.53 -51.44 80.23 -47.61 82.81 -43.67 85.26 -39.59 87.58 -35.4 89.79 -31.08 91.87 -26.64 93.82 -22.08 95.66 -17.39 97.37 -12.58 98.96 -7.64 100.44 -2.57 101.81 -84.15 0 2.68 -106.05 7.96 -104.69 13.11 -103.17 18.13 -101.53 23.03 -99.76 27.78 -97.85 32.42 -95.8 36.92 -93.64 41.29 -91.33 45.53 -88.9 49.64 -86.34 53.63 -83.65 57.47 -80.83 61.2 -77.87 64.79 -74.8 68.25 -71.59 71.59 -68.25 74.8 -64.79 77.87 -61.2 80.83 -57.47 83.65 -53.63 86.34 -49.64 88.9 -45.53 91.33 -41.29 93.64 -36.92 95.8 -32.42 97.85 -27.78 99.76 -23.03 101.53 -18.13 103.17 -13.11 104.69 -7.96 106.05 -2.68 0 0z"/>
   </g>
   <g id="_2344290152800">
    <g>
     <polygon class="fil2" points="2761.22,445.98 2936.12,546.96 3111.01,647.94 3111.01,849.89 3111.01,1051.85 2936.12,1152.83 2761.22,1253.8 2586.32,1152.83 2411.42,1051.85 2411.42,849.89 2411.42,647.94 2586.32,546.96 "/>
     <line class="fil3" x1="3111.01" y1="647.94" x2="2761.22" y2= "849.89" />
     <line class="fil3" x1="2411.42" y1="647.94" x2="2761.22" y2= "849.89" />
     <line class="fil3" x1="2761.22" y1="1253.8" x2="2761.22" y2= "849.89" />
    </g>
    <g>
     <polygon class="fil4" points="2761.22,1253.8 2936.12,1354.78 3111.01,1455.76 3111.01,1657.71 3111.01,1859.67 2936.12,1960.65 2761.22,2061.62 2586.32,1960.65 2411.42,1859.67 2411.42,1657.71 2411.42,1455.76 2586.32,1354.78 "/>
     <line class="fil3" x1="3111.01" y1="1455.76" x2="2761.22" y2= "1657.71" />
     <line class="fil3" x1="2411.42" y1="1455.76" x2="2761.22" y2= "1657.71" />
     <line class="fil3" x1="2761.22" y1="2061.62" x2="2761.22" y2= "1657.71" />
    </g>
    <g>
     <polygon class="fil5" points="2761.22,2061.62 2936.12,2162.6 3111.01,2263.58 3111.01,2465.53 3111.01,2667.49 2936.12,2768.47 2761.22,2869.44 2586.32,2768.47 2411.42,2667.49 2411.42,2465.53 2411.42,2263.58 2586.32,2162.6 "/>
     <line class="fil3" x1="3111.01" y1="2263.58" x2="2761.22" y2= "2465.53" />
     <line class="fil3" x1="2411.42" y1="2263.58" x2="2761.22" y2= "2465.53" />
     <line class="fil3" x1="2761.22" y1="2869.44" x2="2761.22" y2= "2465.53" />
    </g>
    <g>
     <polygon class="fil4" points="2061.62,849.89 2236.52,950.87 2411.42,1051.85 2411.42,1253.8 2411.42,1455.76 2236.52,1556.74 2061.62,1657.71 1886.72,1556.74 1711.83,1455.76 1711.83,1253.8 1711.83,1051.85 1886.72,950.87 "/>
     <line class="fil3" x1="2411.42" y1="1051.85" x2="2061.62" y2= "1253.8" />
     <line class="fil3" x1="1711.83" y1="1051.85" x2="2061.62" y2= "1253.8" />
     <line class="fil3" x1="2061.62" y1="1657.71" x2="2061.62" y2= "1253.8" />
    </g>
    <g>
     <polygon class="fil5" points="2061.62,1657.71 2236.52,1758.69 2411.42,1859.67 2411.42,2061.62 2411.42,2263.58 2236.52,2364.56 2061.62,2465.53 1886.72,2364.56 1711.83,2263.58 1711.83,2061.62 1711.83,1859.67 1886.72,1758.69 "/>
     <line class="fil3" x1="2411.42" y1="1859.67" x2="2061.62" y2= "2061.62" />
     <line class="fil3" x1="1711.83" y1="1859.67" x2="2061.62" y2= "2061.62" />
     <line class="fil3" x1="2061.62" y1="2465.53" x2="2061.62" y2= "2061.62" />
    </g>
    <g>
     <polygon class="fil2" points="2061.62,2465.53 2236.52,2566.51 2411.42,2667.49 2411.42,2869.44 2411.42,3071.4 2236.52,3172.38 2061.62,3273.35 1886.72,3172.38 1711.83,3071.4 1711.83,2869.44 1711.83,2667.49 1886.72,2566.51 "/>
     <line class="fil3" x1="2411.42" y1="2667.49" x2="2061.62" y2= "2869.44" />
     <line class="fil3" x1="1711.83" y1="2667.49" x2="2061.62" y2= "2869.44" />
     <line class="fil3" x1="2061.62" y1="3273.35" x2="2061.62" y2= "2869.44" />
    </g>
    <g>
     <polygon class="fil5" points="1362.03,1253.8 1536.93,1354.78 1711.83,1455.76 1711.83,1657.71 1711.83,1859.67 1536.93,1960.64 1362.03,2061.62 1187.13,1960.64 1012.23,1859.67 1012.23,1657.71 1012.23,1455.76 1187.13,1354.78 "/>
     <line class="fil3" x1="1711.83" y1="1455.76" x2="1362.03" y2= "1657.71" />
     <line class="fil3" x1="1012.23" y1="1455.76" x2="1362.03" y2= "1657.71" />
     <line class="fil3" x1="1362.03" y1="2061.62" x2="1362.03" y2= "1657.71" />
    </g>
    <g>
     <polygon class="fil2" points="1362.03,2061.62 1536.93,2162.6 1711.83,2263.58 1711.83,2465.53 1711.83,2667.49 1536.93,2768.46 1362.03,2869.44 1187.13,2768.46 1012.23,2667.49 1012.23,2465.53 1012.23,2263.58 1187.13,2162.6 "/>
     <line class="fil3" x1="1711.83" y1="2263.58" x2="1362.03" y2= "2465.53" />
     <line class="fil3" x1="1012.23" y1="2263.58" x2="1362.03" y2= "2465.53" />
     <line class="fil3" x1="1362.03" y1="2869.44" x2="1362.03" y2= "2465.53" />
    </g>
    <g>
     <polygon class="fil4" points="1362.03,2869.44 1536.93,2970.42 1711.83,3071.4 1711.83,3273.35 1711.83,3475.31 1536.93,3576.29 1362.03,3677.26 1187.13,3576.29 1012.23,3475.31 1012.23,3273.35 1012.23,3071.4 1187.13,2970.42 "/>
     <line class="fil3" x1="1711.83" y1="3071.4" x2="1362.03" y2= "3273.35" />
     <line class="fil3" x1="1012.23" y1="3071.4" x2="1362.03" y2= "3273.35" />
     <line class="fil3" x1="1362.03" y1="3677.26" x2="1362.03" y2= "3273.35" />
    </g>
   </g>
  </g>
 </g>
</svg>
