<?xml version="1.0" encoding="UTF-8"?>
<!DOCTYPE svg PUBLIC "-//W3C//DTD SVG 1.1//EN" "http://www.w3.org/Graphics/SVG/1.1/DTD/svg11.dtd">
<!-- Creator: CorelDRAW 2018 (64-Bit) -->
<svg xmlns="http://www.w3.org/2000/svg" xml:space="preserve" width="122.5mm" height="122.5mm" version="1.1" style="shape-rendering:geometricPrecision; text-rendering:geometricPrecision; image-rendering:optimizeQuality; fill-rule:evenodd; clip-rule:evenodd"
viewBox="0 0 9996.65 9996.65"
 xmlns:xlink="http://www.w3.org/1999/xlink">
 <defs>
  <style type="text/css">
   <![CDATA[
    .fil2 {fill:#0075BE}
    .fil4 {fill:#191B38}
    .fil3 {fill:#C2C2C2}
    .fil0 {fill:white}
    .fil1 {fill:#0075BE;fill-rule:nonzero}
   ]]>
  </style>
 </defs>
 <g id="Слой_x0020_1">
  <metadata id="CorelCorpID_0Corel-Layer"/>
  <g id="_2466931651696">
   <g>
    <path class="fil0" d="M4998.32 102.01c2704.15,0 4896.32,2192.15 4896.32,4896.32 0,2704.15 -2192.16,4896.32 -4896.32,4896.32 -2704.16,0 -4896.32,-2192.16 -4896.32,-4896.32 0,-2704.16 2192.15,-4896.32 4896.32,-4896.32z"/>
    <path id="1" class="fil1" d="M9996.65 4998.32l-204.01 0 0 0 -6.24 -246.82 -18.52 -243.51 -30.49 -239.94 -42.17 -236.08 -53.52 -231.91 -64.6 -227.47 -75.35 -222.73 -85.83 -217.68 -96 -212.35 -105.87 -206.71 -115.44 -200.77 -124.71 -194.52 -133.68 -187.98 -142.34 -181.13 -150.7 -173.98 -158.77 -166.52 -166.52 -158.77 -173.98 -150.7 -181.13 -142.34 -187.98 -133.68 -194.52 -124.71 -200.77 -115.44 -206.71 -105.87 -212.34 -95.99 -217.68 -85.83 -222.73 -75.35 -227.47 -64.6 -231.91 -53.52 -236.08 -42.17 -239.94 -30.49 -243.5 -18.52 -246.82 -6.24 0 -204.01 257.11 6.5 253.8 19.3 250.14 31.78 246.16 43.96 241.85 55.83 237.23 67.36 232.28 78.6 227.02 89.5 221.43 100.11 215.54 110.4 209.32 120.35 202.8 130.01 195.96 139.34 188.8 148.37 181.34 157.08 173.57 165.48 165.48 173.57 157.08 181.34 148.37 188.8 139.34 195.96 130.01 202.8 120.35 209.32 110.39 215.54 100.11 221.44 89.5 227.02 78.6 232.27 67.36 237.23 55.83 241.85 43.96 246.16 31.78 250.14 19.3 253.81 6.5 257.11 0 0zm-4998.32 4998.32l0 -204.01 0 0 246.82 -6.24 243.5 -18.52 239.94 -30.49 236.08 -42.17 231.91 -53.52 227.47 -64.6 222.73 -75.35 217.68 -85.83 212.34 -96 206.71 -105.87 200.77 -115.44 194.52 -124.71 187.98 -133.68 181.13 -142.34 173.98 -150.7 166.52 -158.77 158.77 -166.52 150.7 -173.98 142.34 -181.13 133.68 -187.98 124.71 -194.52 115.44 -200.77 105.87 -206.71 96 -212.34 85.83 -217.68 75.35 -222.73 64.6 -227.47 53.52 -231.91 42.17 -236.08 30.49 -239.94 18.52 -243.5 6.24 -246.82 204.01 0 -6.5 257.11 -19.3 253.8 -31.78 250.14 -43.96 246.16 -55.83 241.85 -67.36 237.23 -78.6 232.28 -89.5 227.02 -100.11 221.43 -110.39 215.54 -120.35 209.32 -130.01 202.8 -139.34 195.96 -148.37 188.8 -157.08 181.34 -165.48 173.57 -173.57 165.48 -181.34 157.08 -188.8 148.37 -195.96 139.34 -202.8 130.01 -209.32 120.35 -215.54 110.39 -221.43 100.11 -227.02 89.5 -232.28 78.6 -237.23 67.36 -241.85 55.83 -246.16 43.96 -250.14 31.78 -253.8 19.3 -257.11 6.5 0 0zm-4998.32 -4998.32l204.01 0 0 0 6.24 246.82 18.52 243.5 30.49 239.94 42.17 236.08 53.52 231.91 64.6 227.47 75.35 222.73 85.83 217.68 95.99 212.34 105.87 206.71 115.44 200.77 124.71 194.52 133.68 187.98 142.34 181.13 150.7 173.98 158.77 166.52 166.52 158.77 173.98 150.7 181.13 142.34 187.98 133.68 194.52 124.71 200.77 115.44 206.71 105.87 212.35 96 217.68 85.83 222.73 75.35 227.47 64.6 231.91 53.52 236.08 42.17 239.94 30.49 243.51 18.52 246.82 6.24 0 204.01 -257.11 -6.5 -253.81 -19.3 -250.14 -31.78 -246.16 -43.96 -241.85 -55.83 -237.23 -67.36 -232.27 -78.6 -227.02 -89.5 -221.44 -100.11 -215.54 -110.39 -209.32 -120.35 -202.8 -130.01 -195.96 -139.34 -188.8 -148.37 -181.34 -157.08 -173.57 -165.48 -165.48 -173.57 -157.08 -181.34 -148.37 -188.8 -139.34 -195.96 -130.01 -202.8 -120.35 -209.32 -110.4 -215.54 -100.11 -221.43 -89.5 -227.02 -78.6 -232.28 -67.36 -237.23 -55.83 -241.85 -43.96 -246.16 -31.78 -250.14 -19.3 -253.8 -6.5 -257.11 0 0zm4998.32 -4998.32l0 204.01 0 0 -246.82 6.24 -243.51 18.52 -239.94 30.49 -236.08 42.17 -231.91 53.52 -227.47 64.6 -222.73 75.35 -217.68 85.83 -212.35 95.99 -206.71 105.87 -200.77 115.44 -194.52 124.71 -187.98 133.68 -181.13 142.34 -173.98 150.7 -166.52 158.77 -158.77 166.52 -150.7 173.98 -142.34 181.13 -133.68 187.98 -124.71 194.52 -115.44 200.77 -105.87 206.71 -95.99 212.35 -85.83 217.68 -75.35 222.73 -64.6 227.47 -53.52 231.91 -42.17 236.08 -30.49 239.94 -18.52 243.51 -6.24 246.82 -204.01 0 6.5 -257.11 19.3 -253.81 31.78 -250.14 43.96 -246.16 55.83 -241.85 67.36 -237.23 78.6 -232.27 89.5 -227.02 100.11 -221.44 110.4 -215.54 120.35 -209.32 130.01 -202.8 139.34 -195.96 148.37 -188.8 157.08 -181.34 165.48 -173.57 173.57 -165.48 181.34 -157.08 188.8 -148.37 195.96 -139.34 202.8 -130.01 209.32 -120.35 215.54 -110.4 221.44 -100.11 227.02 -89.5 232.27 -78.6 237.23 -67.36 241.85 -55.83 246.16 -43.96 250.14 -31.78 253.81 -19.3 257.11 -6.5 0 0z"/>
   </g>
   <g id="_2466931651376">
    <path class="fil2" d="M2131.05 3103.5c5.05,-2.89 11.71,-7.3 14.75,-9.35l28.48 -19.1c3.85,-2.78 9.56,-7.07 13.47,-10.03l114.69 -93.9c155.6,-130.19 307.45,-252.05 487.53,-350.63 297.44,-162.84 477.9,-234.09 797.46,-320.78 628.21,-170.42 1361.85,-81.96 1870,175.84 806.55,409.2 1388.12,1233.74 1204.4,2135.31 -53.83,264.14 -216.07,594.61 -394.93,703.45 -63.99,114.04 -281.24,214.92 -407.55,241.85 -26.79,5.71 -60.56,11.34 -87.9,11.72 -117.41,1.57 -69.06,-9.16 -75,-15.42 -56.84,139.17 -29.51,420.1 -22.94,578.46 688.93,-27.83 1063.89,-394.41 1330.13,-855.25 473.29,-819.2 224.73,-1772.74 -287.61,-2499.56 -432.61,-613.7 -1322.24,-1028.14 -2139.01,-1113.1 -612.16,-47.32 -1162.22,75.8 -1658.06,272.8 -479.92,190.65 -820.21,452.26 -1163.65,786.4 42.84,25.5 362.13,324.6 375.73,381.31z"/>
    <path class="fil2" d="M5663.37 8340.45c845.5,-57.27 1435.13,-190.04 2083.11,-643.72 75.4,-52.79 162.44,-116.08 248.95,-194.09l187.03 -162.27c53.02,-72.15 17.24,14.06 45.15,-94.09 -154.14,-112.11 -239.73,-256.02 -389.32,-350.63 -115.81,101.47 -192.14,192.37 -300.5,264.77 -117.54,78.52 -208.15,144.68 -339.14,219.53 -262.01,149.73 -486.98,231.94 -799.47,314.79 -688.78,182.62 -1319.63,83.3 -1891.09,-193.77 -255.15,-123.71 -444.84,-271.35 -641.56,-474.9 -407.06,-421.21 -655.06,-1050.35 -525.86,-1644.54 63.2,-290.61 205.99,-571.75 391.8,-703.44 140.66,-167.21 325.08,-244.3 600.04,-262.2l-7.42 -550.11c-1627.04,-34.18 -2342.13,2670.73 -384.13,3944.99 496.79,323.3 996.25,515.79 1722.39,529.68z"/>
    <path class="fil3" d="M6912.34 2161.46c30.68,65.96 77.84,93.34 127.3,150.96 42.09,49.01 83.68,95.61 128.54,151.21 227.92,282.47 461.72,770.08 544.38,1131.83 160.98,704.5 100.23,1302.23 -185.2,1876.61 -122.09,245.68 -327.35,499.6 -474.06,645.76 -384.88,383.44 -1074.79,656.34 -1650.88,537.38 -165.68,-34.22 -263.86,-74.35 -408.53,-150.59 -104.33,-54.98 -258.7,-149.84 -319.75,-249.54 -151.44,-80.97 -233.12,-368.28 -262.48,-593.6l-550.04 6.63c31.96,675.47 419.77,1111.01 898.12,1349.43 554.08,276.18 1238.07,285.65 1837.29,44.67 967.28,-389.02 1743.25,-1398.73 1763.05,-2733.6 -34.4,-841.36 -202.89,-1398.05 -637.15,-2045.03 -96.02,-143.05 -306.87,-420.63 -435.87,-495.1 -85.2,53.92 -325.22,301.78 -374.72,372.98z"/>
    <path class="fil3" d="M1629.67 5672.37c16.4,50.81 37.78,499.5 100.09,786.7 91.88,423.47 304.93,914.26 557.34,1261.88 93.36,128.56 310.54,426.3 413.37,490.73 83,-37.55 340.1,-304.95 389.93,-373.37 -34.96,-77.79 -174.47,-209.37 -251.1,-298.68 -229.92,-268.02 -457.34,-765.6 -549.09,-1129.36 -174.2,-690.71 -96.69,-1324.87 185.77,-1891.21 218.53,-438.16 647.55,-899.18 1157.22,-1076.78 297.77,-103.76 620.27,-174.64 984.94,-97.77 263.01,55.44 614.7,238.21 707.69,392.53 150.98,94.88 247.87,357.95 249,575.75 146.88,42.89 394,10.76 557.15,18.62l-3.49 -180.23c-355.53,-1811.49 -2944.21,-1834.11 -3991.05,-156.59 -570.76,914.62 -422.41,1361.74 -507.77,1677.79z"/>
    <path class="fil4" d="M2131.05 3103.5c-113.65,196.44 -416.21,404.31 -724.7,1069.49 -140.69,303.34 -390.02,1094.57 -309.39,1495.89l532.7 3.48c85.36,-316.05 -62.99,-763.17 507.77,-1677.79 1046.83,-1677.52 3635.52,-1654.9 3991.05,156.59 13.29,155.56 10.26,305.35 -35.79,445.67 -56.1,170.98 -164.68,262.53 -195.88,355.42l370.09 362.03c178.86,-108.85 341.1,-439.31 394.93,-703.45 183.72,-901.57 -397.86,-1726.11 -1204.4,-2135.31 -508.15,-257.81 -1241.8,-346.26 -1870,-175.84 -319.57,86.69 -500.02,157.95 -797.46,320.78 -180.08,98.59 -331.93,220.44 -487.53,350.63l-114.69 93.9c-3.92,2.96 -9.62,7.25 -13.47,10.03l-28.48 19.1c-3.04,2.06 -9.69,6.46 -14.75,9.35z"/>
    <path class="fil4" d="M4577.04 1662.99c816.76,84.97 1706.39,499.4 2139.01,1113.1 512.34,726.83 760.9,1680.36 287.61,2499.56 -266.25,460.84 -641.21,827.42 -1330.13,855.25 -126.08,-14.31 -244.85,-34.5 -348.72,-77.92 -133.75,-55.88 -139.9,-76.46 -249.54,-162.24 -97.76,33.07 -335.29,292.13 -401.1,364.32 61.05,99.71 215.41,194.56 319.75,249.54 144.67,76.24 242.85,116.38 408.53,150.59 576.08,118.96 1265.99,-153.94 1650.88,-537.38 146.71,-146.16 351.97,-400.08 474.06,-645.76 285.42,-574.38 346.18,-1172.11 185.2,-1876.61 -82.66,-361.76 -316.47,-849.36 -544.38,-1131.83 -44.86,-55.6 -86.44,-102.19 -128.54,-151.21 -49.47,-57.62 -96.62,-85 -127.3,-150.96 -141.05,-84.37 -388.7,-426.84 -1079.25,-739.8 -374.74,-169.85 -1017.94,-350.14 -1506.76,-318.38l1.12 545.7 249.58 14.02z"/>
    <path class="fil4" d="M3861.63 5668.1c37.31,-345.21 88.31,-385.44 243.59,-598.2 -63.68,-115.44 -281.24,-280.61 -372.74,-391.82 -185.82,131.69 -328.61,412.82 -391.8,703.44 -129.21,594.19 118.79,1223.34 525.86,1644.54 196.73,203.56 386.42,351.2 641.56,474.9 571.46,277.07 1202.31,376.4 1891.09,193.77 312.49,-82.85 537.46,-165.06 799.47,-314.79 130.98,-74.85 221.6,-141.01 339.14,-219.53 108.36,-72.4 184.69,-163.3 300.5,-264.77 48.4,-72.95 144.76,-139.26 213.64,-221.97 217.01,-260.57 378.5,-509.43 532.71,-840.19 179.64,-385.28 362.4,-1001.59 326.07,-1504.48l-550.64 -0.4c-19.8,1334.87 -795.77,2344.58 -1763.05,2733.6 -599.21,240.98 -1283.2,231.51 -1837.29,-44.67 -478.35,-238.43 -866.16,-673.96 -898.12,-1349.43z"/>
    <path class="fil4" d="M3090.4 7838.31l508.55 409.95c490.21,345.69 1496.42,733.41 2069.63,632.51l-5.21 -540.33c-726.14,-13.9 -1225.61,-206.38 -1722.39,-529.68 -1958,-1274.26 -1242.91,-3979.17 384.13,-3944.99 295.22,11.85 438.95,103.65 605.74,245.89 130.14,-96.69 253.17,-264.16 394.98,-374.63 -92.99,-154.32 -444.68,-337.09 -707.69,-392.53 -364.66,-76.86 -687.17,-5.99 -984.94,97.77 -509.67,177.61 -938.69,638.62 -1157.22,1076.78 -282.46,566.34 -359.97,1200.5 -185.77,1891.21 91.75,363.76 319.17,861.34 549.09,1129.36 76.63,89.32 216.14,220.9 251.1,298.68z"/>
   </g>
  </g>
 </g>
</svg>
